<mxfile host="app.diagrams.net" modified="2023-05-06T13:52:48.016Z" agent="Mozilla/5.0 (Windows NT 10.0; Win64; x64) AppleWebKit/537.36 (KHTML, like Gecko) Chrome/111.0.0.0 Safari/537.36 OPR/97.0.0.0" version="21.2.7" etag="5lDt5N2QdgdV-KY35cCk" type="github">
  <diagram name="Sayfa -1" id="csmfxjEjoSfvURcdhM8b">
    <mxGraphModel>
      <root>
        <mxCell id="0" />
        <mxCell id="1" parent="0" />
      </root>
    </mxGraphModel>
  </diagram>
</mxfile>
